<?xml version="1.0" encoding="UTF-8"?>
<svg id="Layer_2" data-name="Layer 2" xmlns="http://www.w3.org/2000/svg" viewBox="0 0 44.86 28.5">
  <defs>
    <style>
      .cls-1 {
        fill: #fff;
        stroke-width: 0px;
      }
    </style>
  </defs>
  <g id="Layer_7" data-name="Layer 7">
    <path class="cls-1" d="m.24,0l44.37.2c.22,0,.3.28.12.4l-22.19,15.29c-.08.05-.18.05-.25,0L.11.4C-.07.28.02,0,.24,0Z"/>
    <path class="cls-1" d="m0,4.17c0-.34.38-.53.65-.33l21.61,15.24c.09.07.22.07.32,0L44.47,3.84c.17-.12.4.13.4.33v23.65c-.01.38-.32.68-.7.68H.41c-.23,0-.41-.18-.41-.41V4.17Z"/>
  </g>
</svg>