<?xml version="1.0" encoding="UTF-8"?>
<svg id="Layer_2" data-name="Layer 2" xmlns="http://www.w3.org/2000/svg" viewBox="0 0 41.75 29">
  <defs>
    <style>
      .cls-1 {
        fill: #fff;
      }

      .cls-1, .cls-2 {
        stroke: #fff;
        stroke-miterlimit: 10;
        stroke-width: 2px;
      }

      .cls-2 {
        fill: none;
      }
    </style>
  </defs>
  <g id="Layer_7" data-name="Layer 7">
    <path class="cls-2" d="m37.96,28H3.79c-.47-.02-1.19-.14-1.81-.67-.03-.02-.09-.08-.16-.15-.23-.23-.7-.81-.82-1.97V3.79c0-1.54,1.25-2.79,2.79-2.79h34.17c1.54,0,2.79,1.25,2.79,2.79v21.42c0,1.54-1.25,2.79-2.79,2.79Z"/>
    <path class="cls-1" d="m4.75,26.5c.75-2.77,8.29-14.55,12-15.7,3-.92,15,10.16,18.75,15.7H4.75Z"/>
    <circle class="cls-1" cx="31.38" cy="8.12" r="3.37"/>
  </g>
</svg>