<?xml version="1.0" encoding="UTF-8"?>
<svg id="Layer_2" data-name="Layer 2" xmlns="http://www.w3.org/2000/svg" viewBox="0 0 43.99 47.99">
  <defs>
    <style>
      .cls-1 {
        fill: #fff;
        stroke: #fff;
        stroke-miterlimit: 10;
      }
    </style>
  </defs>
  <g id="Layer_7" data-name="Layer 7">
    <path class="cls-1" d="m28.42,32.33c-.88.17-1.82.16-2.65.16-1.66.01-3.32,0-4.98-.04-1.74-.04-3.47-.17-5.2-.35-.14,1.07-.26,2.19-.37,3.36-.42,4.28-.62,6.41,0,8.04,1.95,5.18,11.46,5.44,13.54,0,.62-1.63.42-3.76,0-8.04-.11-1.09-.22-2.13-.34-3.14Z"/>
    <path class="cls-1" d="m22.64.51C9.71,0-.83,15.2.64,22.04c.89,4.16,6.56,6.8,13.5,7.92,2.05.24,4.11.42,6.17.48,1.66.05,3.32.04,4.97.05.91,0,2.04.07,3.02-.15,8.7-1.34,14.13-4.12,15.05-8.31C44.83,15.29,34.84,1,22.64.51Z"/>
  </g>
</svg>