<?xml version="1.0" encoding="UTF-8"?>
<svg id="Layer_2" data-name="Layer 2" xmlns="http://www.w3.org/2000/svg" viewBox="0 0 58.32 59.55">
  <defs>
    <style>
      .cls-1 {
        stroke-width: 5px;
      }

      .cls-1, .cls-2 {
        fill: none;
        stroke: #fff;
        stroke-miterlimit: 10;
      }

      .cls-2 {
        stroke-width: 4px;
      }
    </style>
  </defs>
  <g id="Layer_7" data-name="Layer 7">
    <g>
      <ellipse class="cls-1" cx="17.89" cy="17.56" rx="13.11" ry="12.83"/>
      <rect class="cls-1" x="17.32" y="30.39" width="1.14" height="2.23"/>
      <rect class="cls-1" x="17.32" y="2.5" width="1.14" height="2.23"/>
      <rect class="cls-1" x="3.08" y="16.42" width="1.12" height="2.28" transform="translate(21.2 13.92) rotate(90)"/>
      <rect class="cls-1" x="31.57" y="16.42" width="1.12" height="2.28" transform="translate(49.69 -14.57) rotate(90)"/>
      <polygon class="cls-1" points="29.22 7.48 28.43 6.67 27.49 7.55 28.28 8.36 29.22 7.48"/>
      <polygon class="cls-1" points="6.55 7.48 7.34 6.67 8.28 7.55 7.49 8.36 6.55 7.48"/>
      <polygon class="cls-1" points="29.22 27.64 28.43 28.45 27.49 27.57 28.28 26.76 29.22 27.64"/>
      <polygon class="cls-1" points="6.55 27.64 7.34 28.45 8.28 27.57 7.49 26.76 6.55 27.64"/>
    </g>
    <g>
      <ellipse class="cls-2" cx="43.13" cy="44.85" rx="11.16" ry="10.77" transform="translate(-5.34 5.83) rotate(-7.29)"/>
      <polygon class="cls-2" points="45.92 55.27 46.85 54.99 47.41 56.78 46.48 57.06 45.92 55.27"/>
      <polygon class="cls-2" points="38.85 32.92 39.78 32.64 40.35 34.42 39.42 34.71 38.85 32.92"/>
      <polygon class="cls-2" points="32.32 47.63 32.6 48.53 30.74 49.09 30.46 48.2 32.32 47.63"/>
      <polygon class="cls-2" points="55.52 40.61 55.8 41.5 53.95 42.06 53.66 41.17 55.52 40.61"/>
      <polygon class="cls-2" points="49.81 33.97 48.96 33.52 48.42 34.46 49.27 34.91 49.81 33.97"/>
      <polygon class="cls-2" points="31.35 39.56 31.79 38.72 32.77 39.2 32.33 40.04 31.35 39.56"/>
      <polygon class="cls-2" points="54.92 50.13 54.48 50.97 53.49 50.5 53.93 49.66 54.92 50.13"/>
      <polygon class="cls-2" points="36.46 55.72 37.3 56.17 37.84 55.24 37 54.79 36.46 55.72"/>
    </g>
  </g>
</svg>